<?xml version="1.0" standalone="no"?>
<!DOCTYPE svg PUBLIC "-//W3C//DTD SVG 20010904//EN"
 "http://www.w3.org/TR/2001/REC-SVG-20010904/DTD/svg10.dtd">
<svg version="1.0" xmlns="http://www.w3.org/2000/svg"
 width="300.000000pt" height="157.000000pt" viewBox="0 0 300.000000 157.000000"
 preserveAspectRatio="xMidYMid meet">
<metadata>
Created by potrace 1.10, written by Peter Selinger 2001-2011
</metadata>
<g transform="translate(0.000000,157.000000) scale(0.100000,-0.100000)"
fill="#000000" stroke="none">
<path d="M2632 1284 c-12 -8 -22 -22 -22 -30 0 -21 28 -17 40 6 6 11 17 20 25
20 8 0 15 5 15 10 0 15 -33 12 -58 -6z"/>
<path d="M2475 1195 c-8 -14 -22 -36 -30 -50 -27 -43 -15 -41 25 5 37 41 42
44 61 32 18 -12 24 -11 38 2 14 15 14 18 1 26 -30 19 -79 12 -95 -15z"/>
<path d="M2510 1131 c-10 -19 -14 -51 -6 -51 35 0 87 42 71 58 -3 3 -5 0 -5
-6 0 -15 -37 -35 -50 -27 -7 4 -6 13 0 26 6 10 8 19 6 19 -3 0 -10 -9 -16 -19z"/>
<path d="M2790 1096 c0 -8 3 -22 6 -31 5 -13 8 -14 15 -3 14 21 10 48 -6 48
-8 0 -15 -6 -15 -14z"/>
<path d="M2515 1050 c-16 -4 -88 -37 -158 -74 -138 -71 -170 -78 -234 -51 -39
16 -50 12 -53 -20 -5 -42 1 -53 29 -63 26 -9 30 -16 33 -53 3 -41 5 -44 42
-52 30 -8 41 -17 52 -43 19 -46 31 -49 36 -9 2 20 0 35 -7 35 -5 0 -21 12 -34
25 -13 14 -31 25 -41 25 -18 0 -36 43 -25 61 4 5 -7 17 -24 27 -46 25 -33 37
36 34 46 -3 73 2 109 17 55 25 66 22 28 -8 -15 -12 -25 -23 -22 -26 2 -2 26
13 52 35 26 22 52 38 56 35 14 -9 9 -88 -6 -103 -8 -7 -14 -19 -14 -25 1 -14
59 53 60 68 0 6 -5 26 -10 45 -9 32 -8 37 15 57 56 49 112 37 101 -20 -3 -17
-13 -35 -22 -41 -18 -13 -9 -47 11 -40 7 3 29 -6 50 -20 21 -14 44 -26 52 -26
8 0 13 -6 10 -12 -2 -7 -13 -11 -23 -10 -79 15 -90 14 -90 -6 0 -15 4 -17 16
-10 12 8 25 6 48 -6 19 -10 33 -12 37 -6 11 18 33 11 28 -9 -9 -34 -100 -42
-128 -11 -25 27 -37 25 -23 -5 13 -28 53 -45 91 -38 24 5 27 2 27 -20 0 -14
-5 -29 -10 -32 -6 -4 -8 -11 -5 -16 9 -14 -4 -49 -18 -49 -7 0 -17 13 -23 28
-14 36 -89 75 -145 74 -21 -1 -39 4 -39 9 0 5 12 28 27 50 17 26 31 38 41 34
12 -5 13 -3 2 10 -12 14 -18 10 -55 -32 -53 -60 -48 -83 20 -83 24 0 47 -4 50
-10 4 -6 -14 -10 -45 -10 -36 0 -59 -6 -77 -19 l-24 -20 34 6 c19 3 44 0 57
-7 20 -11 25 -9 44 15 19 24 25 26 44 16 27 -14 42 -42 42 -75 0 -14 5 -28 10
-31 6 -3 10 -1 10 4 0 6 9 11 19 11 25 0 66 88 82 173 6 34 15 78 20 97 9 36
0 51 -31 49 -11 -1 -10 -3 3 -6 31 -8 17 -30 -16 -24 -4 1 -19 2 -32 3 -14 1
-25 6 -25 10 0 3 -9 10 -20 13 -33 10 -23 21 27 31 41 8 48 13 50 34 1 19 -7
30 -30 45 -18 10 -35 19 -39 19 -3 1 -10 5 -15 10 -5 5 -2 6 6 1 9 -5 12 -3 9
5 -6 18 -16 20 -53 10z m58 -48 c3 8 9 3 15 -12 5 -14 7 -29 4 -34 -3 -5 -9
-1 -13 10 -7 17 -8 17 -8 -3 -1 -36 -21 -26 -21 10 0 18 -3 37 -7 43 -5 5 -1
1 9 -8 12 -13 18 -15 21 -6z"/>
<path d="M2754 1002 c-44 -54 -51 -66 -28 -54 28 15 57 50 61 72 4 26 3 26
-33 -18z"/>
<path d="M2661 959 c-13 -17 -21 -31 -19 -32 1 -1 12 -7 23 -13 19 -10 20 -8
20 32 0 24 0 44 -1 44 0 0 -10 -14 -23 -31z"/>
<path d="M2447 868 c-9 -5 -7 -12 7 -25 13 -13 20 -15 23 -5 3 6 9 10 14 6 5
-3 9 4 9 15 0 20 -27 25 -53 9z"/>
<path d="M2343 783 c-13 -8 -23 -21 -23 -28 0 -8 -11 -27 -25 -43 -14 -17 -25
-37 -25 -45 0 -23 29 -28 57 -10 25 16 25 17 4 25 -12 4 -21 10 -21 13 0 11
32 70 48 88 18 21 14 21 -15 0z"/>
<path d="M375 563 c-76 -40 -111 -106 -103 -197 6 -73 38 -119 106 -153 46
-22 61 -25 113 -20 33 4 73 14 89 22 29 15 30 17 30 95 l0 80 -66 0 -65 0 3
-27 c2 -24 7 -28 31 -26 25 2 27 -1 27 -37 0 -43 -10 -50 -74 -50 -98 0 -156
109 -110 206 21 44 59 64 123 64 65 0 81 -7 81 -36 0 -18 5 -24 23 -24 20 0
22 4 19 50 -4 48 -5 50 -40 60 -55 15 -152 12 -187 -7z"/>
<path d="M1390 559 c0 -12 8 -23 20 -26 19 -5 20 -14 20 -145 0 -131 -1 -140
-20 -145 -12 -3 -20 -14 -20 -27 0 -20 5 -21 75 -21 70 0 75 1 75 21 0 13 -8
24 -20 27 -17 4 -20 14 -20 56 l0 51 70 0 70 0 0 30 0 30 -70 0 -70 0 0 58 0
57 70 0 c66 0 70 -1 70 -22 0 -18 6 -23 25 -23 23 0 25 3 25 50 l0 50 -150 0
c-146 0 -150 -1 -150 -21z"/>
<path d="M1245 538 c-2 -7 -5 -26 -7 -43 -2 -22 -9 -31 -25 -33 -30 -4 -32
-42 -3 -42 19 0 20 -7 20 -95 0 -85 2 -96 23 -115 17 -17 30 -21 61 -17 46 6
59 17 50 41 -5 12 -14 16 -27 12 -37 -9 -47 11 -47 95 l0 79 40 0 c37 0 40 2
40 26 0 25 -2 26 -41 20 l-42 -7 5 46 c5 42 4 45 -19 45 -13 0 -26 -6 -28 -12z"/>
<path d="M2525 540 c-6 -10 19 -60 30 -60 21 0 55 23 55 38 0 26 -11 34 -27
20 -10 -8 -17 -8 -25 0 -15 15 -25 15 -33 2z"/>
<path d="M694 454 c-16 -8 -38 -28 -47 -43 -24 -40 -22 -118 3 -159 49 -79
173 -78 225 2 21 32 21 115 1 154 -30 58 -115 79 -182 46z m110 -50 c48 -48
21 -164 -38 -164 -32 0 -64 26 -71 60 -8 37 2 85 22 105 19 20 67 19 87 -1z"/>
<path d="M958 454 c-16 -8 -28 -21 -28 -30 0 -20 29 -29 51 -16 21 13 76 16
82 5 2 -5 7 -20 11 -35 6 -27 5 -28 -29 -28 -69 0 -135 -45 -135 -93 0 -10 12
-30 26 -44 21 -21 32 -25 66 -20 22 3 48 13 58 22 15 14 19 14 27 2 4 -8 25
-17 46 -20 34 -5 37 -4 37 19 0 14 -6 24 -14 24 -11 0 -15 21 -18 91 -3 85 -5
92 -31 115 -33 28 -105 32 -149 8z m122 -161 c0 -28 -31 -53 -67 -53 -44 0
-55 26 -24 52 30 24 91 25 91 1z"/>
<path d="M1769 455 c-42 -23 -63 -64 -63 -121 0 -59 19 -95 67 -124 38 -24 75
-25 122 -6 92 39 102 198 16 249 -35 20 -106 22 -142 2z m116 -55 c29 -32 26
-117 -4 -141 -33 -27 -66 -24 -91 9 -18 21 -21 36 -17 74 2 26 10 54 17 63 18
22 73 19 95 -5z"/>
<path d="M1990 450 c0 -13 8 -24 20 -27 18 -5 20 -14 20 -90 0 -76 -2 -85 -20
-90 -12 -3 -20 -14 -20 -27 0 -20 5 -21 75 -21 70 0 75 1 75 21 0 13 -8 24
-20 27 -17 4 -20 14 -20 70 0 73 16 97 67 97 25 0 32 5 35 25 6 31 2 35 -34
35 -18 0 -38 -10 -53 -26 l-23 -25 -4 23 c-3 20 -10 23 -50 26 -43 3 -48 1
-48 -18z"/>
<path d="M2300 463 c-109 -40 -99 -240 14 -269 36 -9 90 3 118 26 21 17 22 20
6 36 -15 15 -18 15 -39 0 -54 -38 -109 2 -109 78 0 57 22 86 65 86 29 0 36 -4
41 -25 4 -16 13 -25 25 -25 16 0 19 8 19 44 0 41 -2 44 -31 50 -37 7 -88 7
-109 -1z"/>
<path d="M2528 454 c-60 -32 -78 -141 -35 -205 41 -61 142 -76 199 -29 21 17
22 20 7 35 -15 15 -19 16 -47 1 -17 -9 -40 -16 -52 -16 -26 0 -70 42 -70 67 0
16 9 18 90 15 l90 -4 0 42 c0 34 -6 48 -34 76 -28 28 -41 34 -77 34 -24 -1
-56 -7 -71 -16z m107 -49 c38 -37 32 -45 -40 -45 -39 0 -65 4 -65 10 0 17 47
60 65 60 9 0 27 -11 40 -25z"/>
</g>
</svg>
